<svg width="1080" height="1080" viewBox="0 0 1080 1080" fill="none" xmlns="http://www.w3.org/2000/svg">
<path d="M463 515H506L536 519L620 533L647 536H680L697 533L709 529L712 530L704 538L691 546L675 551L654 553L626 551L596 546L519 529L501 526L490 525H467L444 528L425 533L407 540L391 548L375 558L372 559L374 555L385 544L395 537L409 529L428 522L449 517L463 515Z" fill="#FAFAFA"/>
<path d="M468 538H499L524 543L572 556L606 563L623 565L621 567L609 568H593L567 566L525 560L487 554L475 553H455L429 556L403 562L383 568L380 567L390 560L406 552L430 544L450 540L468 538Z" fill="#FAFAFA"/>
<path d="M305 428H312L317 432L318 434V440L330 437H333L332 441L317 445L314 453L324 458V461L318 460L293 449L296 440L300 432L305 428Z" fill="#FAFAFA"/>
<path d="M758 624L767 627L787 636L788 639L783 651L779 656L775 658L768 657L764 653L763 645L752 648H748L749 644L762 641H765L767 632L757 627L758 624Z" fill="#FAFAFA"/>
<path d="M482 770L491 771L496 776L498 780L497 789L493 795L490 797H480L473 791L472 788V780L476 774L479 771L482 770Z" fill="black"/>
<path d="M591 286H600L606 291L608 295V302L604 310L598 313L589 312L584 307L582 303L583 294L587 288L591 286Z" fill="black"/>
<path d="M511 772L515 773L517 778V781H536L540 774H543L542 779L529 804L526 807L523 806L511 775V772Z" fill="#FAFAFA"/>
<path d="M706 705H708L718 737L717 741L711 740L684 728V725L686 724L694 727L705 718L706 714L705 706L706 705Z" fill="#FAFAFA"/>
<path d="M361 690L364 693L362 698V703L372 713L382 711L384 714L374 718L350 726L348 724L349 718L360 691L361 690Z" fill="#FAFAFA"/>
<path d="M364 344L373 347L396 357V361L389 359L384 360L374 369L376 379L373 380L362 347L364 344Z" fill="#FAFAFA"/>
<path d="M553 277L557 278L568 305L569 311L565 310L562 303L545 302L540 310H537L539 304L552 278L553 277Z" fill="#FAFAFA"/>
<path d="M730 357L733 359L730 369L721 392H718L717 389L719 384L718 380L711 372L709 370L699 372L697 369L721 360L730 357Z" fill="#FAFAFA"/>
<path d="M390 720H393L392 725L382 738L380 741L390 738L398 736L399 754L409 741L414 736L416 737L414 742L400 761L398 764L394 763V742L374 748L372 747L373 743L383 729L390 720Z" fill="#FAFAFA"/>
<path d="M431 300L435 301L448 327L447 330L444 329L434 310L432 320L431 327L429 328L413 320L423 339L422 343L419 342L408 320L406 317V313H411L425 321L428 322L429 306L431 300Z" fill="#FAFAFA"/>
<path d="M683 318L687 320L686 341L706 334L709 337L696 356L690 363L687 360L700 342H697L686 346H682V337L683 327H681L679 332L669 345H665L667 340L679 324L683 318Z" fill="#FAFAFA"/>
<path d="M659 742L662 745L673 766L675 772L670 773L654 764L653 765L651 782L649 785H646L632 757L633 755H636L646 775L648 776L649 761L650 758L655 759L665 765H667L657 746V743L659 742Z" fill="#FAFAFA"/>
<path d="M339 660L342 661L341 666L332 693L352 680L355 681L353 685L330 700H327L328 691L335 670L334 669L317 680H314L313 677L339 660Z" fill="#FAFAFA"/>
<path d="M751 382L754 383L753 391L745 415L759 406L765 402H767L768 405L757 413L742 423H740L739 420L749 389L728 403L726 402V399L751 382Z" fill="#FAFAFA"/>
<path d="M480 767H490L498 772L501 777L502 786L499 794L493 799L488 801L478 800L472 796L468 788V780L472 772L477 768L480 767ZM482 770L477 773L473 778L472 780V788L475 793L480 797H490L495 793L498 786L497 777L492 772L488 770H482Z" fill="#FAFAFA"/>
<path d="M778 587L788 588L795 593L798 598L799 605L796 614L793 618L789 617L791 613L794 608V600L792 595L787 593L784 592H777L771 596L769 600V611L776 612L780 603L783 605L780 617L772 616L766 614L764 608L765 598L769 592L774 588L778 587Z" fill="#FAFAFA"/>
<path d="M592 282L601 283L607 287L611 292L612 295V302L609 309L604 314L600 316H590L583 312L579 306L578 297L581 289L587 284L592 282ZM591 286L585 290L582 297L583 306L587 311L592 313L601 312L606 307L608 302V295L604 289L600 286H591Z" fill="#FAFAFA"/>
<path d="M289 467L292 468L291 472L288 476L287 483L289 490L293 492L296 493H306L311 489L313 484L312 475L304 473L302 482H299L300 474L302 469L312 470L315 471L317 476V486L313 493L308 497L306 498H295L287 493L283 486V478L286 471L289 467Z" fill="#FAFAFA"/>
<path d="M649 300L655 302L670 310V313L665 312L653 306H651L648 312V315L662 322L661 325L656 324L644 318L642 324L641 328L657 336L656 340L637 331L635 330L637 324L648 301L649 300Z" fill="#FAFAFA"/>
<path d="M424 744L429 745L446 754L437 773L432 783L427 782L410 773L411 770L417 772L430 778L434 768L428 766L419 761V758L424 759L437 765L439 759L441 755L435 753L424 747V744Z" fill="#FAFAFA"/>
<path d="M742 658L746 659L765 671L770 676L759 693L756 695L755 691L764 677L759 673L755 671L753 676L747 685L744 684L746 679L752 669L745 664L742 665L733 679L730 678L732 673L741 659L742 658Z" fill="#FAFAFA"/>
<path d="M322 391L325 392L323 397L317 407V410L323 414L326 413L334 400L337 403L329 416L333 420L338 422L347 407L349 406L351 407L349 412L339 428L329 423L311 412L312 407L322 391Z" fill="#FAFAFA"/>
<path d="M311 589H314L319 608L318 613L291 620H287L282 601V597H285L290 614V616L300 613L296 596L300 595L304 612L311 610H315L311 595V589Z" fill="#FAFAFA"/>
<path d="M791 462H794L800 485H796L792 471V467L781 469L785 484V487L781 486L777 471L766 473L771 490V493L767 492L762 474V470L791 462Z" fill="#FAFAFA"/>
<path d="M514 278L523 279L526 282L525 284L520 283H512L509 285V290L513 292L525 295L529 299V306L524 311L522 312H512L506 309V306H509L515 308L522 307L524 306V300L520 298L510 296L505 293L504 291V285L508 280L514 278Z" fill="#FAFAFA"/>
<path d="M773 421L778 422V424L757 434L755 437V444L758 449L760 450L769 449L785 442L788 445L772 453L766 455L758 454L753 450L750 443V437L754 431L762 426L773 421Z" fill="#FAFAFA"/>
<path d="M313 628H322L327 631L330 636L331 645L327 652L311 660L304 662L303 658L321 650L326 645V638L324 634L320 632L313 633L297 640H294L293 637L308 630L313 628Z" fill="#FAFAFA"/>
<path d="M562 772L572 774L575 776L574 779L567 777H560L557 778L556 784L563 787L572 789L576 793V801L572 805L569 806H559L555 804L556 800L562 802L570 801L572 797L571 794L556 790L552 787L551 780L555 774L562 772Z" fill="#FAFAFA"/>
<path d="M476 284H487L489 286L488 288H477L473 289V296L474 297L490 299L495 304V311L490 316L480 318L473 316L472 314L473 312L478 313H486L490 311L491 307L490 304L487 303L474 302L470 300L468 296L469 289L473 285L476 284Z" fill="#FAFAFA"/>
<path d="M596 766L605 767L608 770L607 772L602 771H594L590 773L589 777L591 780L594 781L606 782L610 784L612 788L611 795L606 799L604 800H594L591 799L593 795L602 796L607 793V788L601 786L590 785L585 780V773L590 768L596 766Z" fill="#FAFAFA"/>
<path d="M771 634L776 635L784 639L779 651L775 654L769 653L767 651V643L771 634Z" fill="black"/>
<path d="M305 432H312L315 436L314 443L310 452L298 447L299 441L304 433L305 432Z" fill="black"/>
<path d="M796 499H803L802 503L779 506H774L776 524H772L770 509V503L780 501L796 499Z" fill="#FAFAFA"/>
<path d="M306 557H309L311 567L312 579L300 581L279 583V579L301 576H308L306 563V557Z" fill="#FAFAFA"/>
<path d="M725 686L729 687V690L722 692L720 695L721 700L726 705L736 714L739 716L737 720L729 714L717 703L716 701V693L720 688L725 686Z" fill="#FAFAFA"/>
<path d="M343 366L348 368L359 378L365 384V392L360 398L352 399V395L359 393L361 390L360 385L348 374L342 369L343 366Z" fill="#FAFAFA"/>
<path d="M618 760L621 761L631 789L630 792H627L617 764L618 760Z" fill="#FAFAFA"/>
<path d="M786 536H793L796 540L795 546L793 548H786L783 544L784 538L786 536Z" fill="#FAFAFA"/>
<path d="M293 536H300L303 540L302 546L300 548H293L290 544L291 538L293 536Z" fill="#FAFAFA"/>
<path d="M771 570H780L803 573L804 577H796L773 574L771 573V570Z" fill="#FAFAFA"/>
<path d="M278 508L311 512L310 516L290 514L278 512V508Z" fill="#FAFAFA"/>
<path d="M726 362H728L725 372L722 378L715 372L712 369V367L726 362Z" fill="black"/>
<path d="M450 293L454 294L464 322L463 324H460L450 297V293Z" fill="#FAFAFA"/>
<path d="M358 706L362 708L369 715L367 717L355 721L352 720L358 706Z" fill="black"/>
<path d="M367 349L376 352L382 355L380 359L373 365L371 364L367 352V349Z" fill="black"/>
<path d="M708 720L710 723L713 732V736L704 733L698 730L704 723L708 720Z" fill="black"/>
<path d="M520 785H528L533 786L531 792L526 801L523 797L520 789V785Z" fill="black"/>
<path d="M554 283L556 284L560 295V299L547 298L549 292L554 283Z" fill="black"/>
<path d="M549 270H563L561 275L551 274L548 275L549 270Z" fill="#FAFAFA"/>
</svg>
