<svg width="1080" height="1080" viewBox="0 0 1080 1080" fill="none" xmlns="http://www.w3.org/2000/svg">
<path d="M520 199H560L589 202L612 206L629 210L665 222L677 227L704 240L717 248L736 260L749 270L766 284L769 286V288L773 290L792 309L801 320L812 333L825 352L830 359L834 366L844 384L853 403L862 426L870 451L875 472L879 498L881 522V563L878 589L874 611L866 643L859 662L848 688L838 707L832 718H830L828 723L821 734L810 749L801 760L789 773L782 781L777 785L765 797L754 806L745 813L725 827L712 835L702 841L681 851L654 862L632 869L606 875L573 880L555 881H520L485 877L456 871L432 864L406 854L391 847L377 840L367 834L360 830L348 822L344 820V818L339 816L337 815V813L333 811L325 805L310 792L286 768L273 753L264 741L250 720L238 699L230 683L223 667L214 642L208 621L202 589L200 571L199 556V524L201 497L204 479L210 452L219 422L224 410L229 399L240 376L246 366L261 342H263L265 338L273 327L284 314L289 309L298 299L311 286L327 273L340 263L356 252L380 238L403 227L415 222L451 210L472 205L505 200L520 199ZM527 220L501 222L472 227L445 234L425 241L402 251L385 260L366 271L352 281L349 283V285L344 287L333 296L329 299V301L325 303L317 310V312L313 314L304 324L302 328L299 329L290 340L285 347V349H283L275 360V363H273L264 378L249 406L239 431L233 449L226 477L223 496L221 514L220 532V548L222 575L225 597L231 624L240 652L245 664L251 677L259 693L267 707L275 719L284 732L302 754H304L306 758L312 765H314V767L322 774L326 778H328V780L339 789L355 801L370 811L387 821L404 830L428 840L456 849L484 855L504 858L536 860L565 859L591 856L616 851L633 846L652 840L664 835L684 826L707 813L728 799L746 785L759 773L768 765L775 757L787 744L802 724L810 712L820 695L831 674L841 649L848 628L854 603L858 578L860 552V528L858 501L853 472L845 442L837 420L828 400L817 379L808 365L801 355L793 344L788 337L783 332L770 317L759 306H757V304L747 296L739 289L724 278L706 266L688 256L665 245L641 236L617 229L592 224L568 221L554 220H527Z" fill="#FCFCFB"/>
<path d="M424 509H448L472 510L504 514L547 521L587 528L641 538L684 545L725 550L738 551H787L810 548L830 543L847 536L849 537L843 545H841V547L833 554L822 562L806 570L788 576L766 580H718L685 576L650 570L622 564L506 537L475 531L460 529L440 528H410L388 530L360 535L338 541L323 546L303 554L288 561L268 572L257 579L241 590L232 597V594L243 580L248 575L258 566L262 564V562L268 558L276 552L293 542L309 534L326 527L348 520L370 515L396 511L424 509Z" fill="#FCFCFB"/>
<path d="M432 540H456L472 542L488 545L520 553L580 570L624 581L650 586L677 590L688 591L691 593L672 595H623L598 593L558 588L508 580L472 574L440 569L416 567H388L364 569L336 573L306 580L284 586L266 592L253 596L245 598L250 593L265 583L279 575L294 568L314 560L332 554L346 550L372 545L387 543L408 541L432 540Z" fill="#FCFCFB"/>
</svg>
